<?xml version="1.0" encoding="iso-8859-1"?>
<!-- Uploaded to: SVG Repo, www.svgrepo.com, Generator: SVG Repo Mixer Tools -->
<svg height="800px" width="800px" version="1.1" id="Layer_1" xmlns="http://www.w3.org/2000/svg" xmlns:xlink="http://www.w3.org/1999/xlink" 
	 viewBox="0 0 512 512" xml:space="preserve">
<polygon style="fill:#D82F30;" points="105.739,1.391 222.609,398.748 308.87,398.748 331.13,200.07 308.87,1.391 "/>
<polygon style="fill:#BD1515;" points="308.87,1.391 308.87,398.748 400.696,398.748 434.087,320.835 512,287.443 512,1.391 "/>
<polygon style="fill:#FFCC75;" points="400.696,287.443 400.696,398.748 512,287.443 "/>
<path style="fill:#F2484B;" d="M0,112.696c0,0,0,225.136,0,286.609s49.832,111.304,111.304,111.304s111.304-49.832,111.304-111.304
	s0-286.609,0-286.609H111.304H0z"/>
<path style="fill:#F2EBD9;" d="M0,112.696C0,174.168,49.832,224,111.304,224l22.261-111.304L111.304,1.391
	C49.832,1.391,0,51.223,0,112.696z"/>
<path style="fill:#F9DCA7;" d="M111.304,1.391V224c61.472,0,111.304-49.832,111.304-111.304S172.777,1.391,111.304,1.391z"/>
<circle style="fill:#FF8430;" cx="111.304" cy="112.696" r="33.391"/>
</svg>